<svg xmlns="http://www.w3.org/2000/svg" viewBox="0 0 512 512">
<rect width="512" height="512" rx="112" fill="#0B1220"/>
<path d="M131.0,356 L256,422.0 L381.0,356 L381.0,386 L256,452.0 L131.0,386 Z" fill="#22314A"/><path d="M256,290.0 L381.0,356 L256,422.0 L131.0,356 Z" fill="#33455E"/><path d="M131.0,282 L256,348.0 L381.0,282 L381.0,312 L256,378.0 L131.0,312 Z" fill="#3E5271"/><path d="M256,216.0 L381.0,282 L256,348.0 L131.0,282 Z" fill="#5A7191"/><path d="M131.0,208 L256,274.0 L381.0,208 L381.0,238 L256,304.0 L131.0,238 Z" fill="#C4881F"/><path d="M256,142.0 L381.0,208 L256,274.0 L131.0,208 Z" fill="#F2B544"/>
</svg>
